<?xml version="1.0" standalone="no"?>
<!DOCTYPE svg PUBLIC "-//W3C//DTD SVG 20010904//EN"
 "http://www.w3.org/TR/2001/REC-SVG-20010904/DTD/svg10.dtd">
<svg version="1.0" xmlns="http://www.w3.org/2000/svg"
 width="150.000000pt" height="150.000000pt" viewBox="0 0 150.000000 150.000000"
 preserveAspectRatio="xMidYMid meet">
<metadata>
Created by potrace 1.14, written by Peter Selinger 2001-2017
</metadata>
<g transform="translate(0.000000,150.000000) scale(0.100000,-0.100000)"
fill="#000000" stroke="none">
<path d="M48 1479 c-21 -11 -38 -24 -38 -29 0 -17 109 -1 157 24 l48 25 -65 0
c-46 0 -76 -6 -102 -20z"/>
<path d="M314 1483 c-33 -102 -136 -224 -276 -326 -35 -25 -38 -31 -38 -77 l0
-50 58 46 c31 26 91 82 133 126 42 44 84 78 95 78 10 0 44 12 74 26 58 27 219
51 264 40 15 -4 28 -18 35 -36 5 -17 20 -43 31 -57 22 -29 18 -38 -20 -48 -21
-5 -27 -1 -37 25 -9 23 -17 30 -39 30 -16 0 -39 11 -55 26 -15 14 -33 24 -41
21 -8 -3 -3 -9 15 -16 15 -6 27 -14 27 -18 0 -5 -22 -15 -49 -24 -45 -15 -50
-15 -56 -1 -4 10 5 24 22 39 l28 24 -32 -16 c-24 -11 -33 -22 -33 -39 0 -21
-6 -25 -41 -31 -26 -4 -45 -3 -52 4 -6 6 -17 11 -25 11 -9 0 -7 -6 7 -17 l22
-18 -43 -36 c-51 -42 -99 -69 -126 -69 -10 0 -27 -7 -38 -15 -18 -14 -17 -15
10 -9 21 5 27 4 22 -5 -4 -6 -5 -11 -1 -11 7 0 101 66 153 107 24 20 46 33 49
29 3 -3 11 -2 17 3 6 4 44 16 85 27 l73 18 25 -28 24 -29 -61 -27 c-125 -55
-224 -173 -263 -309 -19 -69 -26 -81 -67 -112 -43 -32 -49 -34 -117 -32 -71 2
-105 -11 -40 -15 17 -2 39 -3 47 -4 45 -3 71 5 111 37 l44 35 21 -47 21 -48
-28 -12 c-16 -7 -44 -24 -63 -38 -29 -22 -43 -25 -109 -25 l-77 0 0 -295 0
-295 542 0 542 0 -33 34 c-44 45 -115 83 -173 91 -26 4 -45 11 -42 16 12 19
22 69 15 69 -5 0 -14 -20 -21 -45 -7 -25 -16 -45 -20 -45 -5 0 -15 -3 -24 -6
-12 -4 -15 1 -14 23 0 15 -4 53 -10 83 -8 46 -7 64 9 110 10 30 19 63 19 73 0
10 38 58 85 107 46 49 93 107 104 127 25 50 55 81 115 119 46 30 50 31 82 18
47 -20 50 -19 67 24 15 35 16 35 16 10 2 -71 -78 -202 -110 -183 -7 5 -10 4
-6 -2 4 -6 0 -16 -9 -24 -17 -14 -94 -143 -94 -156 0 -4 8 1 17 12 15 19 15
19 9 -10 -4 -21 -4 -25 3 -14 6 8 12 27 15 42 8 43 45 99 91 137 23 19 50 47
59 62 20 32 46 114 46 144 0 51 -60 79 -98 44 -16 -15 -22 -17 -22 -7 0 8 10
21 23 30 12 8 19 18 14 23 -4 4 -13 2 -19 -4 -9 -9 -18 6 -39 66 -14 42 -30
85 -34 95 -4 9 -3 17 2 17 5 0 17 -8 25 -17 9 -10 46 -50 82 -89 67 -71 86
-110 86 -172 0 -32 37 -112 53 -112 4 0 -1 17 -11 38 -25 48 -35 142 -16 142
8 0 23 -9 34 -20 16 -16 20 -33 20 -88 0 -37 7 -94 15 -125 8 -32 15 -65 15
-73 0 -14 -21 -62 -47 -109 -29 -51 -62 -137 -48 -125 8 6 23 36 34 65 21 57
88 167 76 125 -4 -14 -15 -36 -25 -50 -10 -14 -32 -60 -50 -103 -35 -84 -115
-202 -130 -192 -6 4 -13 -2 -17 -11 -4 -10 -24 -48 -45 -83 -21 -36 -38 -69
-38 -73 0 -5 27 -8 61 -8 53 0 67 4 117 38 31 21 90 56 130 77 l72 39 0 673
-1 672 -590 1 c-554 0 -590 -1 -595 -17z m702 -41 c-17 -16 -18 -16 -5 5 7 12
15 20 18 17 3 -2 -3 -12 -13 -22z m-196 -204 c30 -14 64 -28 74 -32 42 -14 6
-13 -83 2 -80 15 -95 20 -102 39 -7 20 -5 22 24 19 18 -1 57 -14 87 -28z
m-205 -17 c0 -23 -23 -24 -35 -1 -10 19 -9 21 12 18 13 -2 23 -9 23 -17z m240
-35 c93 -16 164 -45 195 -78 12 -12 37 -55 56 -94 28 -58 34 -83 34 -134 0
-52 -4 -68 -22 -87 -30 -32 -50 -31 -38 3 13 33 13 96 -1 131 -15 40 -47 71
-104 101 -46 25 -59 27 -165 26 -134 -2 -211 -22 -300 -81 -200 -131 -235
-321 -72 -398 158 -75 332 -58 495 49 51 34 28 -4 -57 -92 -65 -68 -87 -97
-96 -132 -18 -68 -26 -73 -91 -66 -82 8 -153 40 -223 98 -70 58 -113 114 -162
211 -46 91 -52 138 -25 224 26 83 106 194 173 239 44 30 158 78 203 86 51 10
127 7 200 -6z m-21 -142 c29 -11 17 -31 -26 -44 -24 -7 -60 -21 -80 -31 -31
-16 -42 -17 -63 -7 -14 6 -25 17 -25 24 0 33 146 76 194 58z m401 -213 c-3 -3
-10 1 -14 8 -6 9 -11 10 -15 2 -9 -14 2 -33 15 -26 13 8 11 -9 -2 -22 -11 -11
-59 5 -59 20 0 5 5 5 10 2 6 -3 10 1 10 9 0 21 32 37 48 24 7 -6 10 -13 7 -17z
m-874 -308 c18 -27 45 -58 61 -71 15 -13 28 -32 28 -42 0 -27 64 -83 118 -102
26 -9 74 -17 108 -17 l61 -1 6 -52 c4 -29 9 -63 13 -75 6 -21 3 -23 -27 -23
-66 1 -175 30 -256 70 -84 41 -139 94 -178 169 -29 57 -11 191 26 191 4 0 22
-21 40 -47z m226 -180 c36 -12 87 -23 112 -24 44 -1 45 -1 16 -10 -59 -19
-179 14 -224 62 -29 32 -26 48 4 19 14 -13 55 -34 92 -47z"/>
<path d="M1190 811 c0 -5 5 -13 10 -16 6 -3 10 -2 10 4 0 5 -4 13 -10 16 -5 3
-10 2 -10 -4z"/>
<path d="M588 1333 c7 -3 16 -2 19 1 4 3 -2 6 -13 5 -11 0 -14 -3 -6 -6z"/>
<path d="M325 1164 c-16 -25 -16 -25 3 -15 11 6 22 17 26 26 9 24 -10 17 -29
-11z"/>
<path d="M403 1141 l-21 -18 28 0 c21 0 28 5 27 19 -2 22 -6 22 -34 -1z"/>
<path d="M1096 732 c-2 -4 7 -9 20 -10 15 -1 22 2 19 8 -7 12 -32 13 -39 2z"/>
<path d="M1047 712 c-10 -10 -17 -27 -17 -38 1 -15 4 -13 16 9 8 15 19 25 24
22 6 -3 7 1 4 9 -8 20 -7 20 -27 -2z"/>
<path d="M1111 676 c-13 -14 -20 -29 -17 -35 4 -6 -2 -16 -14 -23 -11 -7 -20
-18 -20 -25 0 -6 20 7 45 29 42 38 61 69 33 52 -9 -5 -9 -2 1 9 21 26 -3 20
-28 -7z"/>
<path d="M1300 629 c0 -17 4 -28 10 -24 6 3 10 17 10 31 0 13 -4 24 -10 24 -5
0 -10 -14 -10 -31z"/>
<path d="M1350 619 c0 -17 -15 -56 -33 -87 -18 -31 -41 -77 -51 -101 -9 -24
-24 -54 -32 -65 -8 -11 -14 -27 -13 -36 0 -8 20 24 43 71 23 47 57 110 74 141
31 54 42 108 22 108 -5 0 -10 -14 -10 -31z"/>
<path d="M1192 275 c-7 -15 -11 -30 -8 -32 7 -7 28 36 24 49 -2 6 -9 -2 -16
-17z"/>
<path d="M877 211 c-4 -17 -3 -21 5 -13 5 5 8 16 6 23 -3 8 -7 3 -11 -10z"/>
<path d="M1225 209 c-4 -6 -5 -12 -2 -15 2 -3 7 2 10 11 7 17 1 20 -8 4z"/>
<path d="M1151 159 c-14 -42 -7 -49 9 -9 7 17 10 33 8 36 -3 3 -11 -9 -17 -27z"/>
</g>
</svg>
